<?xml version="1.0" encoding="utf-8"?>
<!-- Generator: Adobe Illustrator 25.2.1, SVG Export Plug-In . SVG Version: 6.00 Build 0)  -->
<svg version="1.1" id="Layer_1" xmlns="http://www.w3.org/2000/svg" xmlns:xlink="http://www.w3.org/1999/xlink" x="0px" y="0px"
	 width="100px" height="100px" viewBox="0 0 100 100" style="enable-background:new 0 0 100 100;" xml:space="preserve">
<style type="text/css">
	.st0{fill:#FFFFFF;}
</style>
<g>
	<g>
		<path class="st0" d="M86.3,13.9H18.8v0.6l-0.8-2.9c-1-3.5-4.3-5.9-7.9-5.9h-1C7.9,5.7,7,6.6,7,7.7s0.9,2.1,2.1,2.1h1
			c1.8,0,3.4,1.2,4,3l12.8,44l-6.6,8.2c-0.9,1.2-1.5,2.6-1.5,4.1c0,3.7,3,6.6,6.6,6.6h57.2c1.1,0,2.1-0.9,2.1-2.1
			c0-1.1-0.9-2.1-2.1-2.1H25.4c-1.4,0-2.5-1.1-2.5-2.5c0-0.6,0.2-1.1,0.6-1.6l6.6-8.3h40.4c3.2,0,6.1-1.9,7.5-4.7L92.3,24
			c0.4-0.9,0.6-1.9,0.6-2.8v-0.6C93,16.9,90,13.9,86.3,13.9z M88.9,21.1c0,0.4-0.1,0.7-0.2,1.1L74.2,52.8c-0.7,1.4-2.1,2.4-3.7,2.4
			H30.6L19.8,18h66.5c1.4,0,2.5,1.1,2.5,2.5V21.1z"/>
		<path class="st0" d="M27,77.8c-4.5,0-8.2,3.7-8.2,8.2c0,4.5,3.7,8.2,8.2,8.2s8.2-3.7,8.2-8.2C35.3,81.5,31.6,77.8,27,77.8z
			 M27,90.2c-2.3,0-4.1-1.8-4.1-4.1c0-2.3,1.8-4.1,4.1-4.1s4.1,1.8,4.1,4.1C31.2,88.4,29.3,90.2,27,90.2z"/>
		<path class="st0" d="M76.5,77.8c-4.5,0-8.2,3.7-8.2,8.2c0,4.5,3.7,8.2,8.2,8.2c4.5,0,8.2-3.7,8.2-8.2C84.7,81.5,81,77.8,76.5,77.8
			z M76.5,90.2c-2.3,0-4.1-1.8-4.1-4.1c0-2.3,1.8-4.1,4.1-4.1s4.1,1.8,4.1,4.1C80.6,88.4,78.8,90.2,76.5,90.2z"/>
	</g>
</g>
</svg>
