<?xml version="1.0" encoding="utf-8"?>
<!-- Generator: Adobe Illustrator 25.2.1, SVG Export Plug-In . SVG Version: 6.00 Build 0)  -->
<svg version="1.1" id="Layer_1" xmlns="http://www.w3.org/2000/svg" xmlns:xlink="http://www.w3.org/1999/xlink" x="0px" y="0px"
	 width="30px" height="30px" viewBox="0 0 30 30" style="enable-background:new 0 0 30 30;" xml:space="preserve">
<style type="text/css">
	.st0{fill:#FFFFFF;}
</style>
<g>
	<g>
		<path class="st0" d="M26.1,4H5.5v0.2L5.2,3.3c-0.3-1-1.3-1.8-2.4-1.8H2.5c-0.3,0-0.6,0.3-0.6,0.6s0.3,0.6,0.6,0.6h0.3
			c0.6,0,1,0.4,1.2,0.9L8,17l-2,2.5c-0.3,0.3-0.5,0.8-0.5,1.3c0,1.1,0.9,2,2,2H25c0.3,0,0.6-0.3,0.6-0.6c0-0.3-0.3-0.6-0.6-0.6H7.5
			c-0.4,0-0.8-0.3-0.8-0.8c0-0.2,0.1-0.3,0.2-0.5l2-2.6h12.4c1,0,1.8-0.6,2.3-1.4L27.9,7c0.2-0.2,0.2-0.6,0.2-0.9V6
			C28.1,4.9,27.2,4,26.1,4z M26.9,6.2c0,0.1,0,0.2-0.1,0.3l-4.4,9.3c-0.2,0.4-0.6,0.7-1.2,0.7H9.1L5.8,5.3h20.3
			c0.4,0,0.8,0.3,0.8,0.8L26.9,6.2L26.9,6.2z"/>
		<path class="st0" d="M8,23.5c-1.4,0-2.6,1.1-2.6,2.6c0,1.4,1.1,2.6,2.6,2.6s2.6-1.1,2.6-2.6C10.5,24.7,9.4,23.5,8,23.5z M8,27.3
			c-0.7,0-1.3-0.6-1.3-1.3c0-0.7,0.6-1.3,1.3-1.3s1.3,0.6,1.3,1.3S8.7,27.3,8,27.3z"/>
		<path class="st0" d="M23.1,23.5c-1.4,0-2.6,1.1-2.6,2.6c0,1.4,1.1,2.6,2.6,2.6c1.4,0,2.6-1.1,2.6-2.6
			C25.6,24.7,24.5,23.5,23.1,23.5z M23.1,27.3c-0.7,0-1.3-0.6-1.3-1.3c0-0.7,0.6-1.3,1.3-1.3c0.7,0,1.3,0.6,1.3,1.3
			S23.8,27.3,23.1,27.3z"/>
	</g>
</g>
</svg>
