<?xml version="1.0" encoding="utf-8"?>
<!-- Generator: Adobe Illustrator 25.2.1, SVG Export Plug-In . SVG Version: 6.00 Build 0)  -->
<svg version="1.1" id="Layer_1" xmlns="http://www.w3.org/2000/svg" xmlns:xlink="http://www.w3.org/1999/xlink" x="0px" y="0px"
	 width="40px" height="40px" viewBox="0 0 40 40" style="enable-background:new 0 0 40 40;" xml:space="preserve">
<style type="text/css">
	.st0{fill:#FFFFFF;}
</style>
<g>
	<path class="st0" d="M36,36.3c-0.2,0-0.4-0.1-0.5-0.2L3.7,4.2c-0.3-0.3-0.3-0.8,0-1.1s0.8-0.3,1.1,0L36.6,35c0.3,0.3,0.3,0.8,0,1.1
		C36.4,36.2,36.2,36.3,36,36.3z"/>
</g>
<g>
	<path class="st0" d="M4.2,36.3c-0.2,0-0.4-0.1-0.5-0.2c-0.3-0.3-0.3-0.8,0-1.1L35.5,3.2c0.3-0.3,0.8-0.3,1.1,0s0.3,0.8,0,1.1
		L4.7,36.1C4.6,36.2,4.4,36.3,4.2,36.3z"/>
</g>
</svg>
