<?xml version="1.0" encoding="utf-8"?>
<!-- Generator: Adobe Illustrator 25.0.1, SVG Export Plug-In . SVG Version: 6.00 Build 0)  -->
<svg version="1.1" id="Layer_1" xmlns="http://www.w3.org/2000/svg" xmlns:xlink="http://www.w3.org/1999/xlink" x="0px" y="0px"
	 width="16px" height="16px" viewBox="0 0 16 16" style="enable-background:new 0 0 16 16;" xml:space="preserve">
<style type="text/css">
	.st0{fill:#AA7B30;}
</style>
<path class="st0" d="M13.8,2.7H2.2C1.5,2.7,0.9,3.3,0.9,4v8c0,0.7,0.6,1.3,1.3,1.3h11.5c0.7,0,1.3-0.6,1.3-1.3V4
	C15.1,3.3,14.5,2.7,13.8,2.7z M13.8,4v1.1c-0.6,0.5-1.6,1.3-3.7,2.9C9.6,8.5,8.6,9.3,8,9.3c-0.6,0-1.6-0.9-2-1.2
	C3.9,6.4,2.9,5.6,2.2,5.1V4H13.8z M2.2,12V6.8c0.6,0.5,1.5,1.2,2.9,2.3c0.6,0.5,1.7,1.5,2.9,1.5c1.2,0,2.2-1,2.9-1.5
	c1.4-1.1,2.3-1.8,2.9-2.3V12H2.2z"/>
</svg>
