<?xml version="1.0" encoding="utf-8"?>
<!-- Generator: Adobe Illustrator 25.0.1, SVG Export Plug-In . SVG Version: 6.00 Build 0)  -->
<svg version="1.1" id="Layer_1" xmlns="http://www.w3.org/2000/svg" xmlns:xlink="http://www.w3.org/1999/xlink" x="0px" y="0px"
	 width="16px" height="16px" viewBox="0 0 16 16" style="enable-background:new 0 0 16 16;" xml:space="preserve">
<style type="text/css">
	.st0{fill:#AA7B30;}
</style>
<path class="st0" d="M14.8,2.4c0,0-0.1,0-0.1,0L10.4,4h0L6.1,2.5C5.9,2.4,5.8,2.4,5.6,2.4c-0.2,0-0.3,0-0.5,0.1L1.3,3.8
	C1,3.9,0.8,4.2,0.8,4.5v8.7c0,0.2,0.2,0.4,0.4,0.4c0,0,0.1,0,0.1,0L5.6,12l4.3,1.5c0.3,0.1,0.7,0.1,1,0l3.8-1.3
	c0.3-0.1,0.5-0.4,0.5-0.7V2.8C15.2,2.6,15,2.4,14.8,2.4z M6.4,3.9L9.6,5v7.2L6.4,11V3.9z M2,12.1V4.8l3.2-1.1v7.2l0,0L2,12.1z
	 M14,11.2l-3.2,1.1V5.1l0,0L14,3.9V11.2z"/>
</svg>
