<?xml version="1.0" encoding="utf-8"?>
<!-- Generator: Adobe Illustrator 25.0.1, SVG Export Plug-In . SVG Version: 6.00 Build 0)  -->
<svg version="1.1" id="Layer_1" xmlns="http://www.w3.org/2000/svg" xmlns:xlink="http://www.w3.org/1999/xlink" x="0px" y="0px"
	 width="16px" height="16px" viewBox="0 0 16 16" style="enable-background:new 0 0 16 16;" xml:space="preserve">
<style type="text/css">
	.st0{fill:#AA7B30;}
</style>
<path class="st0" d="M8,1.8c-3.9,0-7.1,2.6-7.1,5.8c0,1.3,0.6,2.5,1.5,3.5c-0.4,1.1-1.3,2-1.3,2c-0.2,0.2-0.2,0.5-0.1,0.7
	c0.1,0.2,0.3,0.4,0.6,0.4c1.7,0,3-0.7,3.8-1.3c0.8,0.3,1.7,0.4,2.6,0.4c3.9,0,7.1-2.6,7.1-5.8S11.9,1.8,8,1.8z M8,12
	c-0.7,0-1.5-0.1-2.2-0.3l-0.6-0.2l-0.5,0.4c-0.4,0.3-0.9,0.6-1.6,0.8c0.2-0.3,0.4-0.7,0.6-1.1l0.3-0.8l-0.6-0.6
	C2.8,9.6,2.2,8.7,2.2,7.6c0-2.4,2.6-4.4,5.8-4.4s5.8,2,5.8,4.4S11.2,12,8,12z"/>
</svg>
