<?xml version="1.0" encoding="utf-8"?>
<!-- Generator: Adobe Illustrator 25.2.3, SVG Export Plug-In . SVG Version: 6.00 Build 0)  -->
<svg version="1.1" xmlns="http://www.w3.org/2000/svg" xmlns:xlink="http://www.w3.org/1999/xlink" x="0px" y="0px" width="150px"
	 height="22.1px" viewBox="0 0 150 22.1" style="enable-background:new 0 0 150 22.1;" xml:space="preserve">
<style type="text/css">
	.st0{fill:#FFFFFF;}
</style>
<g id="N_1_">
</g>
<g id="A_2_">
</g>
<g id="z">
</g>
<g id="A_1_">
</g>
<g id="M">
</g>
<g id="L">
</g>
<g id="A">
</g>
<g id="Y">
</g>
<g id="N">
</g>
<g id="O">
</g>
<g id="T">
	<g>
		<path class="st0" d="M137.1,4.4h2.2l7.4,9.2V4.4h1v12.2h-1.2l-8.3-10.3v10.3h-1V4.4z"/>
		<path class="st0" d="M128.1,4.4h1.9l5,12.2h-2.4l-1.6-4h-5.1l-1.6,4h-1L128.1,4.4z M130.6,11.9l-2.3-5.5l-2.2,5.5H130.6z"/>
		<path class="st0" d="M111,16l8-10.8h-7.9V4.4h10.6v0.7l-8,10.8h7.9v0.8H111V16z"/>
		<path class="st0" d="M102.7,4.4h1.9l5,12.2h-2.4l-1.6-4h-5.1l-1.6,4h-1L102.7,4.4z M105.2,11.9l-2.3-5.5l-2.2,5.5H105.2z"/>
		<path class="st0" d="M81.4,4.4h2.3l5.2,9.8l4.7-9.8h2.3v12.2h-2.3V6.8l-4.7,9.8h-1.1l-5.3-9.9v9.9h-1V4.4z"/>
		<path class="st0" d="M70.4,4.4h2.3v11.4h6.5v0.8h-8.8V4.4z"/>
		<path class="st0" d="M61.4,4.4h1.9l5,12.2h-2.4l-1.6-4h-5.1l-1.6,4h-1L61.4,4.4z M63.9,11.9l-2.3-5.5l-2.2,5.5H63.9z"/>
		<path class="st0" d="M47.4,11.8l-4.7-7.4h2.9l3.7,5.9L53,4.4h1.5l-4.5,7v5.2h-2.7V11.8z"/>
		<path class="st0" d="M30.2,4.4h2.5l7.1,8.8V4.4h1.3v12.2h-1.5l-8-9.9v9.9h-1.3V4.4z"/>
		<path class="st0" d="M13.8,10.6c0-3.6,3.1-6.3,7.2-6.3c4.1,0,7.2,2.7,7.2,6.3c0,3.6-3.1,6.3-7.2,6.3
			C16.9,16.8,13.8,14.2,13.8,10.6z M25.5,10.6c0-3.2-1.9-5.5-4.4-5.5s-4.4,2.3-4.4,5.5c0,3.2,1.9,5.5,4.4,5.5
			C23.6,16,25.5,13.8,25.5,10.6z"/>
		<path class="st0" d="M6.5,5.4H2.4v-1h10.9v1H9.2v11.3H6.5V5.4z"/>
	</g>
</g>
<g id="A_Monograma">
</g>
<g id="T_Monograma">
</g>
</svg>
