<?xml version="1.0" encoding="utf-8"?>
<!-- Generator: Adobe Illustrator 25.0.1, SVG Export Plug-In . SVG Version: 6.00 Build 0)  -->
<svg version="1.1" id="T_Monograma" xmlns="http://www.w3.org/2000/svg" xmlns:xlink="http://www.w3.org/1999/xlink" x="0px"
	 y="0px" width="266.8px" height="210.1px" viewBox="0 0 266.8 210.1" style="enable-background:new 0 0 266.8 210.1;"
	 xml:space="preserve">
<style type="text/css">
	.st0{fill:#231F20;}
	.st1{fill:#AA7C2F;}
	.st2{fill:url(#SVGID_1_);}
	.st3{fill:url(#SVGID_2_);}
	.st4{fill:#1F3923;}
	.st5{fill:url(#SVGID_3_);}
	.st6{fill:url(#SVGID_4_);}
</style>
<g>
	<path class="st0" d="M200.9,167.1h2.5l8.5,10.5v-10.5h1.1v14h-1.4l-9.6-11.9v11.9h-1.1V167.1z"/>
	<path class="st0" d="M190.6,167.1h2.2l5.7,14h-2.8l-1.9-4.5H188l-1.8,4.5H185L190.6,167.1z M193.5,175.6l-2.6-6.4l-2.6,6.4H193.5z"
		/>
	<path class="st0" d="M170.9,180.3l9.2-12.4h-9v-0.9h12.1v0.8l-9.2,12.4h9v0.9h-12.1V180.3z"/>
	<path class="st0" d="M161.3,167.1h2.2l5.7,14h-2.8l-1.9-4.5h-5.9l-1.8,4.5h-1.2L161.3,167.1z M164.2,175.6l-2.6-6.4l-2.6,6.4H164.2
		z"/>
	<path class="st0" d="M137,167.1h2.6l5.9,11.2l5.3-11.2h2.6v14h-2.7v-11.3l-5.4,11.3h-1.2l-6.1-11.4v11.4H137V167.1z"/>
	<path class="st0" d="M124.3,167.1h2.7v13.1h7.5v0.9h-10.2V167.1z"/>
	<path class="st0" d="M114,167.1h2.2l5.7,14h-2.8l-1.9-4.5h-5.9l-1.8,4.5h-1.2L114,167.1z M116.8,175.6l-2.6-6.4l-2.6,6.4H116.8z"/>
	<path class="st0" d="M97.9,175.5l-5.4-8.4h3.3l4.3,6.7l4.3-6.7h1.8l-5.2,8.1v5.9h-3.1V175.5z"/>
	<path class="st0" d="M78.2,167.1H81l8.1,10.1v-10.1h1.5v14h-1.8l-9.2-11.4v11.4h-1.5V167.1z"/>
	<path class="st0" d="M59.3,174.1c0-4.2,3.5-7.2,8.3-7.2c4.8,0,8.3,3.1,8.3,7.2c0,4.2-3.5,7.2-8.3,7.2
		C62.8,181.3,59.3,178.3,59.3,174.1z M72.7,174.1c0-3.6-2.2-6.3-5.1-6.3s-5.1,2.7-5.1,6.3c0,3.7,2.1,6.3,5.1,6.3
		C70.6,180.4,72.7,177.8,72.7,174.1z"/>
	<path class="st0" d="M50.9,168.2h-4.7v-1.1h12.6v1.1H54v12.9h-3.1V168.2z"/>
	<g>
		<g>
			<path class="st1" d="M213.1,148.9c-6.7-0.4-12.5-4.3-15.6-9.9L147.7,37.2h-19.2l32.5,66.5h-35.7l3.2,6.6h35.7l10.4,21.2
				c0,0,1.4,3.6,1.4,5.6c0,6.2-4.8,11.3-10.9,11.8c0,0,0,0,0,0v6.6h48L213.1,148.9z"/>
		</g>
		<g>
			<linearGradient id="SVGID_1_" gradientUnits="userSpaceOnUse" x1="171.968" y1="154.766" x2="118.0197" y2="40.0547">
				<stop  offset="1.982868e-05" style="stop-color:#BA9651"/>
				<stop  offset="0.8911" style="stop-color:#AA7C2F"/>
			</linearGradient>
			<path class="st2" d="M194.9,155.5h-29.8v-6.6c0,0,0,0,0,0c6.1-0.4,10.9-5.5,10.9-11.8c0-2-1.4-5.6-1.4-5.6l-10.4-21.2h-35.7
				l-3.2-6.6h35.7l-32.5-66.5h9.6L194.9,155.5z"/>
			<linearGradient id="SVGID_2_" gradientUnits="userSpaceOnUse" x1="148.0382" y1="35.5578" x2="203.4949" y2="151.045">
				<stop  offset="1.982868e-05" style="stop-color:#BA9651"/>
				<stop  offset="0.8911" style="stop-color:#AA7C2F"/>
			</linearGradient>
			<path class="st3" d="M194.9,155.5h18.2l0-6.6c-6.7-0.4-12.5-4.3-15.6-9.9L147.7,37.2h-9.6L194.9,155.5z"/>
		</g>
	</g>
	<g>
		<g>
			<path class="st4" d="M101.9,129.7V43.8h22.5l-3.2-6.6l-75.1,0v0v17.3h6.6h0v0c0.6-6,5.7-10.7,11.9-10.7h20.1v85.8
				c0,10.6-8.6,19.2-19.2,19.2h0v6.6h55.8v-6.6C110.5,148.9,101.9,140.3,101.9,129.7z"/>
		</g>
		<g>
			<linearGradient id="SVGID_3_" gradientUnits="userSpaceOnUse" x1="108.8823" y1="37.7005" x2="108.8823" y2="153.6599">
				<stop  offset="4.957170e-04" style="stop-color:#1F3923"/>
				<stop  offset="0.8905" style="stop-color:#162619"/>
			</linearGradient>
			<path class="st5" d="M93.3,155.5h27.8v-6.6c-10.6,0-19.2-8.6-19.2-19.2V43.8h22.5l-3.2-6.6l-27.9,0L93.3,155.5z"/>
			<linearGradient id="SVGID_4_" gradientUnits="userSpaceOnUse" x1="69.7117" y1="155.4982" x2="69.7117" y2="39.3488">
				<stop  offset="4.957170e-04" style="stop-color:#1F3923"/>
				<stop  offset="0.8905" style="stop-color:#162619"/>
			</linearGradient>
			<path class="st6" d="M93.3,155.5H65.4v-6.6h0c10.6,0,19.2-8.6,19.2-19.2V43.8H64.6c-6.2,0-11.2,4.7-11.9,10.7v0h0h-6.6V37.2v0
				l47.2,0L93.3,155.5z"/>
		</g>
	</g>
</g>
</svg>
