<?xml version="1.0" encoding="utf-8"?>
<!-- Generator: Adobe Illustrator 25.0.1, SVG Export Plug-In . SVG Version: 6.00 Build 0)  -->
<svg version="1.1" xmlns="http://www.w3.org/2000/svg" xmlns:xlink="http://www.w3.org/1999/xlink" x="0px" y="0px" width="400px"
	 height="270px" viewBox="0 0 400 270" style="enable-background:new 0 0 400 270;" xml:space="preserve">
<style type="text/css">
	.st0{fill:#AA7B30;}
</style>
<g id="N_1_">
</g>
<g id="A_2_">
</g>
<g id="z">
</g>
<g id="A_1_">
</g>
<g id="M">
</g>
<g id="L">
</g>
<g id="A">
</g>
<g id="Y">
</g>
<g id="N">
</g>
<g id="O">
</g>
<g id="T">
</g>
<g id="A_Monograma">
</g>
<g id="T_Monograma">
	<path class="st0" d="M331.5,245.4L318,228.5h-4V251h1.8V232L331,251h2.2v-22.4h-1.8V245.4z M297.5,228.5l-9,22.4h1.9l2.9-7.3h9.4
		l3,7.3h4.5l-9.1-22.4H297.5z M293.8,242.2l4.1-10.2l4.1,10.2H293.8z M266.4,230h14.4L266,249.8v1.2h19.4v-1.5H271l14.8-19.8v-1.2
		h-19.4V230z M250.7,228.5l-9,22.4h1.9l2.9-7.3h9.4l3,7.3h4.5l-9.1-22.4H250.7z M247.1,242.2l4.1-10.2l4.1,10.2H247.1z M225.4,246.5
		l-9.5-17.9h-4.1V251h1.8v-18.3l9.7,18.3h1.9l8.6-18.1V251h4.3v-22.4h-4.2L225.4,246.5z M195.8,228.5h-4.3V251h16.2v-1.5h-11.9
		V228.5z M175,228.5l-9,22.4h1.9l2.9-7.3h9.4l3,7.3h4.5l-9.1-22.4H175z M171.3,242.2l4.1-10.2l4.1,10.2H171.3z M152.7,239.3
		l-6.8-10.8h-5.2l8.6,13.5v8.9h4.9v-9.5l8.3-12.9h-2.8L152.7,239.3z M135.3,244.7l-13-16.2h-4.6V251h2.4v-18.3l14.7,18.3h2.8v-22.4
		h-2.4V244.7z M100.9,228.2c-7.6,0-13.2,4.9-13.2,11.6c0,6.6,5.6,11.5,13.2,11.5c7.6,0,13.2-4.9,13.2-11.5
		C114.1,233.1,108.5,228.2,100.9,228.2z M100.9,249.8c-4.7,0-8.1-4.2-8.1-10c0-5.8,3.5-10.1,8.1-10.1c4.7,0,8.1,4.3,8.1,10.1
		C109,245.7,105.6,249.8,100.9,249.8z M66.6,230.3h7.6V251h4.9v-20.7h7.6v-1.8H66.6V230.3z M308.5,183.6L229,21h-30.7l52,106.3
		h-57.1l5.2,10.5h57.1l16.6,33.9c0,0,2.2,5.7,2.2,8.9c0,9.9-7.7,18.1-17.5,18.8c0,0,0,0,0,0V210h76.8l0-10.6
		C322.7,198.8,313.5,192.6,308.5,183.6z M77.1,48.6c1-9.6,9.1-17,19-17h32.1v137.2c0,17-13.8,30.8-30.8,30.8h-0.1V210h89.2v-10.5
		c-17,0-30.8-13.8-30.8-30.8V31.6h36L186.6,21L66.5,21v27.6L77.1,48.6L77.1,48.6z"/>
</g>
</svg>
