<?xml version="1.0" encoding="utf-8"?>
<!-- Generator: Adobe Illustrator 25.0.0, SVG Export Plug-In . SVG Version: 6.00 Build 0)  -->
<svg version="1.1" id="T" xmlns="http://www.w3.org/2000/svg" xmlns:xlink="http://www.w3.org/1999/xlink" x="0px" y="0px"
	 width="2000px" height="379.65px" viewBox="0 0 2000 379.65" style="enable-background:new 0 0 2000 379.65;" xml:space="preserve"
	>
<g>
	<path d="M1832.07,112.39h29.11l98.71,123.04V112.39h12.96v163.75h-16.38l-111.44-138.28v138.28h-12.96V112.39z"/>
	<path d="M1711.56,112.39h25.25l66.64,163.75h-32.53l-21.6-52.99h-68.46l-21.38,52.99h-13.65L1711.56,112.39z M1744.99,212.46
		l-30.25-74.14l-29.79,74.14H1744.99z"/>
	<path d="M1482.1,267.28l107.81-144.2H1484.6v-10.69h141.47v8.87l-107.8,144.2h105.3v10.69H1482.1V267.28z"/>
	<path d="M1370.23,112.39h25.25l66.64,163.75h-32.53l-21.6-52.99h-68.46l-21.38,52.99h-13.65L1370.23,112.39z M1403.66,212.46
		l-30.25-74.14l-29.79,74.14H1403.66z"/>
	<path d="M1085.98,112.39h30.25l69.36,130.78l62.32-130.78h30.48v163.75h-31.39V144.23l-63,131.91h-14.11l-70.96-133.28v133.28
		h-12.96V112.39z"/>
	<path d="M938.17,112.39h31.38v153.06h87.11v10.69h-118.5V112.39z"/>
	<path d="M817.65,112.39h25.25l66.64,163.75h-32.53l-21.6-52.99h-68.46l-21.38,52.99h-13.65L817.65,112.39z M851.08,212.46
		l-30.25-74.14l-29.79,74.14H851.08z"/>
	<path d="M629.82,210.87l-62.54-98.48h38.21l49.81,78.7l50.26-78.7h20.7l-60.5,94.39v69.36h-35.94V210.87z"/>
	<path d="M400.14,112.39h33.21l94.61,118.04V112.39h17.51v163.75H525L417.65,142.86v133.28h-17.51V112.39z"/>
	<path d="M180.24,194.49c0-48.45,41.17-84.38,96.44-84.38c55.49,0,96.44,35.93,96.44,84.38c0,48.44-40.94,83.93-96.66,83.93
		C220.96,278.42,180.24,242.93,180.24,194.49z M336.03,194.49c0-42.31-25.24-73.69-59.36-73.69s-59.36,31.38-59.36,73.69
		c0,42.76,24.79,73.23,59.36,73.23C311.48,267.73,336.03,237.48,336.03,194.49z"/>
	<path d="M81.79,125.35H26.52v-12.96h146.47v12.96h-55.27v150.79H81.79V125.35z"/>
</g>
</svg>
