<?xml version="1.0" encoding="utf-8"?>
<!-- Generator: Adobe Illustrator 25.2.3, SVG Export Plug-In . SVG Version: 6.00 Build 0)  -->
<svg version="1.1" id="T" xmlns="http://www.w3.org/2000/svg" xmlns:xlink="http://www.w3.org/1999/xlink" x="0px" y="0px"
	 width="200px" height="37.1px" viewBox="0 0 200 37.1" style="enable-background:new 0 0 200 37.1;" xml:space="preserve">
<style type="text/css">
	.st0{fill:#FBF7ED;}
</style>
<g>
	<path class="st0" d="M177.7,10.3h2.7l9.3,11.5V10.3h1.2v15.4h-1.5l-10.4-13v13h-1.2V10.3L177.7,10.3z"/>
	<path class="st0" d="M166.4,10.3h2.4l6.2,15.4h-3l-2-5h-6.4l-2,5h-1.3L166.4,10.3z M169.6,19.7l-2.8-7l-2.8,7H169.6z"/>
	<path class="st0" d="M144.9,24.8L155,11.3h-9.9v-1h13.3v0.8l-10.1,13.5h9.9v1h-13.3V24.8z"/>
	<path class="st0" d="M134.4,10.3h2.4l6.2,15.4h-3l-2-5h-6.4l-2,5h-1.3L134.4,10.3z M137.6,19.7l-2.8-7l-2.8,7H137.6z"/>
	<path class="st0" d="M107.8,10.3h2.8l6.5,12.3l5.8-12.3h2.9v15.4h-2.9V13.3L117,25.7h-1.3L109,13.2v12.5h-1.2L107.8,10.3
		L107.8,10.3z"/>
	<path class="st0" d="M93.9,10.3h2.9v14.3h8.2v1H93.9L93.9,10.3L93.9,10.3z"/>
	<path class="st0" d="M82.6,10.3H85l6.2,15.4h-3l-2-5h-6.4l-2,5h-1.3L82.6,10.3z M85.8,19.7l-2.8-7l-2.8,7H85.8z"/>
	<path class="st0" d="M65,19.6l-5.9-9.2h3.6l4.7,7.4l4.7-7.4h1.9l-5.7,8.8v6.5H65L65,19.6L65,19.6z"/>
	<path class="st0" d="M43.5,10.3h3.1l8.9,11.1V10.3h1.6v15.4h-1.9L45.1,13.2v12.5h-1.6L43.5,10.3L43.5,10.3z"/>
	<path class="st0" d="M22.9,18c0-4.5,3.9-7.9,9-7.9c5.2,0,9,3.4,9,7.9c0,4.5-3.8,7.9-9.1,7.9C26.7,25.9,22.9,22.6,22.9,18z M37.5,18
		c0-4-2.4-6.9-5.6-6.9s-5.6,2.9-5.6,6.9c0,4,2.3,6.9,5.6,6.9C35.2,24.9,37.5,22,37.5,18z"/>
	<path class="st0" d="M13.6,11.5H8.5v-1.2h13.7v1.2H17v14.1h-3.4V11.5z"/>
</g>
</svg>
